<?xml version="1.0" encoding="UTF-8" standalone="no"?>
<!-- Created with Inkscape (http://www.inkscape.org/) -->

<svg
   xmlns:dc="http://purl.org/dc/elements/1.1/"
   xmlns:cc="http://creativecommons.org/ns#"
   xmlns:rdf="http://www.w3.org/1999/02/22-rdf-syntax-ns#"
   xmlns:svg="http://www.w3.org/2000/svg"
   xmlns="http://www.w3.org/2000/svg"
   xmlns:sodipodi="http://sodipodi.sourceforge.net/DTD/sodipodi-0.dtd"
   xmlns:inkscape="http://www.inkscape.org/namespaces/inkscape"
   width="120"
   height="120"
   viewBox="0 0 31.75 31.75"
   version="1.1"
   id="svg8"
   inkscape:version="0.92.5 (2060ec1f9f, 2020-04-08)"
   sodipodi:docname="Ticon.svg">
  <defs
     id="defs2" />
  <sodipodi:namedview
     id="base"
     pagecolor="#ffffff"
     bordercolor="#666666"
     borderopacity="1.0"
     inkscape:pageopacity="0.0"
     inkscape:pageshadow="2"
     inkscape:zoom="2.8"
     inkscape:cx="94.821429"
     inkscape:cy="102.85714"
     inkscape:document-units="mm"
     inkscape:current-layer="layer1"
     showgrid="false"
     units="px"
     inkscape:window-width="1920"
     inkscape:window-height="1043"
     inkscape:window-x="1366"
     inkscape:window-y="0"
     inkscape:window-maximized="1" />
  <metadata
     id="metadata5">
    <rdf:RDF>
      <cc:Work
         rdf:about="">
        <dc:format>image/svg+xml</dc:format>
        <dc:type
           rdf:resource="http://purl.org/dc/dcmitype/StillImage" />
        <dc:title></dc:title>
      </cc:Work>
    </rdf:RDF>
  </metadata>
  <g
     inkscape:label="Layer 1"
     inkscape:groupmode="layer"
     id="layer1"
     transform="translate(0,-265.25)">
    <g
       transform="matrix(0.28956452,0,0,0.27538264,-94.319159,77.996711)"
       id="layer1-3">
      <path
         d="m 376.71428,717.72 c -1.3224,0 -1.7637,1.0781 -2.375,2 l -3.9688,6 h -29.156 c -2.216,0 -4,1.784 -4,4 v 54 c 0,2.216 1.784,4 4,4 h 79 c 2.216,0 4,-1.784 4,-4 v -54 c 0,-2.216 -1.784,-4 -4,-4 h -2.125 l -3.9688,-6 c -0.6109,-0.92191 -1.0525,-2 -2.375,-2 z m 16.531,15 c 13.255,0 24,10.745 24,24 0,13.255 -10.745,24 -24,24 -13.254,0 -24,-10.745 -24,-24 0,-13.255 10.746,-24 24,-24 z m -44.031,6 c 1.108,0 2,0.892 2,2 v 32 c 0,1.108 -0.892,2 -2,2 -1.108,0 -2,-0.892 -2,-2 v -32 c 0,-1.108 0.892,-2 2,-2 z m 44.031,0 c -9.9411,0 -18,8.0589 -18,18 0,9.9411 8.0589,18 18,18 9.9414,0 18,-8.0589 18,-18 0,-9.9411 -8.0586,-18 -18,-18 z m 2.7813,3.9375 c 0.3909,0.11371 0.4348,0.77291 0.062,0.9375 -3.5257,1.2052 -6.9141,3.289 -9.8125,6.1875 -2.9003,2.9002 -4.9193,6.2799 -6.125,9.8125 -0.134,0.42188 -0.8901,0.3731 -0.9687,-0.0625 -0.8528,-4.3022 0.545,-9.1391 4.125,-12.719 2.6808,-2.681 6.094,-4.1572 9.4374,-4.375 1.0768,-0.10163 2.3238,-0.0379 3.2818,0.21875 z m 4.2813,17.125 c 1.0235,0 2.0315,0.3752 2.8124,1.1562 1.5622,1.5621 1.5622,4.0942 0,5.6562 -1.5619,1.5621 -4.0941,1.5621 -5.6562,0 -1.5621,-1.5621 -1.5621,-4.0942 0,-5.6562 0.781,-0.78105 1.82,-1.1562 2.8438,-1.1562 z"
         style="fill:#000000"
         id="rect3899-7-5"
         inkscape:connector-curvature="0" />
    </g>
    <text
       xml:space="preserve"
       style="font-style:normal;font-variant:normal;font-weight:normal;font-stretch:normal;font-size:8.46666622px;line-height:1.25;font-family:'Andale Mono';-inkscape-font-specification:'Andale Mono, Normal';font-variant-ligatures:normal;font-variant-caps:normal;font-variant-numeric:normal;font-feature-settings:normal;text-align:start;letter-spacing:0px;word-spacing:0px;writing-mode:lr-tb;text-anchor:start;fill:#000000;fill-opacity:1;stroke:none;stroke-width:0.26458332"
       x="5.6696429"
       y="273.09305"
       id="text4018"><tspan
         sodipodi:role="line"
         id="tspan4020"
         x="5.6696429"
         y="273.09305">TIMA</tspan></text>
    <path
       id="path4047"
       sodipodi:type="arc"
       sodipodi:cx="19.796503"
       sodipodi:cy="286.55841"
       sodipodi:rx="5.7168903"
       sodipodi:ry="5.6035089"
       sodipodi:start="0"
       sodipodi:end="6.2720152"
       d="m 25.513393,286.55841 a 5.7168903,5.6035089 0 0 1 -5.700925,5.60349 5.7168903,5.6035089 0 0 1 -5.732766,-5.57219 5.7168903,5.6035089 0 0 1 5.668908,-5.63461 5.7168903,5.6035089 0 0 1 5.764427,5.54072 l -5.716534,0.0626 z"
       style="fill:#ffffff;stroke-width:0.26458332" />
    <path
       style="fill:#000000;fill-opacity:1;stroke:#000000;stroke-width:0.26458332px;stroke-linecap:butt;stroke-linejoin:miter;stroke-opacity:1"
       d="m 15.024553,285.37723 4.063244,4.44122 5.197173,-6.52009 -4.488467,3.26005 z"
       id="path4049"
       inkscape:connector-curvature="0" />
    <path
       style="fill:#ffffff;fill-opacity:1;stroke-width:0.35714287"
       d="M 69.31682,104.34993 C 63.889907,103.3693 58.49078,100.43621 54.628971,96.370729 51.739145,93.328493 49.94672,90.313249 48.761274,86.5 47.539529,82.569986 47.611235,76.742314 48.930462,72.75 52.580068,61.705362 63.412913,54.470304 75.236714,55.180538 c 4.260658,0.25593 6.906117,0.940577 10.549001,2.730092 6.933017,3.405746 11.87185,9.47823 13.587117,16.705884 0.930088,3.919143 0.595183,9.37578 -0.80685,13.145918 -1.215053,3.267343 -2.377932,5.258011 -4.619228,7.907407 -3.055554,3.611908 -8.201714,6.790521 -13.161039,8.129121 -2.591755,0.69956 -8.954885,1.00525 -11.468895,0.55097 z m 8.159553,-17.116338 5.095056,-6.409265 5.625,-0.01931 c 3.976311,-0.01365 5.625,-0.139191 5.625,-0.428329 0,-0.297529 -1.460286,-0.357264 -5.357143,-0.219142 -2.946429,0.104434 -5.357143,0.147718 -5.357143,0.09619 0,-0.05153 2.090822,-2.70692 4.646272,-5.900863 3.646871,-4.558062 4.560014,-5.911106 4.24525,-6.290375 -0.489186,-0.589432 0.3825,-1.142182 -9.198847,5.833135 -4.395901,3.200259 -8.138586,5.818653 -8.317079,5.818653 -0.178493,0 -4.519023,-1.050928 -9.645622,-2.335394 -5.1266,-1.284467 -9.391122,-2.265362 -9.476718,-2.179767 -0.187289,0.187289 16.383821,18.411189 16.758831,18.430347 0.144148,0.0074 2.554862,-2.870783 5.357143,-6.39588 z"
       id="path4858"
       inkscape:connector-curvature="0"
       transform="matrix(0.26458333,0,0,0.26458333,0,265.25)" />
    <path
       style="fill:#ffffff;fill-opacity:1;stroke-width:0.35714287"
       d="m 85.517857,80.521287 c 1.227679,-0.06974 3.236608,-0.06974 4.464286,0 1.227679,0.06974 0.223214,0.126799 -2.232143,0.126799 -2.455357,0 -3.459821,-0.05706 -2.232143,-0.126799 z"
       id="path4860"
       inkscape:connector-curvature="0"
       transform="matrix(0.26458333,0,0,0.26458333,0,265.25)" />
    <path
       style="fill:#ffffff;fill-opacity:1;stroke-width:0.35714287"
       d="m 89.089286,80.549186 c 0.245536,-0.09908 0.647321,-0.09908 0.892857,0 0.245536,0.09907 0.04464,0.180137 -0.446428,0.180137 -0.491072,0 -0.691965,-0.08106 -0.446429,-0.180137 z"
       id="path4862"
       inkscape:connector-curvature="0"
       transform="matrix(0.26458333,0,0,0.26458333,0,265.25)" />
  </g>
</svg>
